<?xml version="1.0" encoding="UTF-8"?>
<svg version="1.1" xmlns="http://www.w3.org/2000/svg" width="449" height="448">
<path d="M0 0 C148.17 0 296.34 0 449 0 C449 147.84 449 295.68 449 448 C300.83 448 152.66 448 0 448 C0 300.16 0 152.32 0 0 Z " fill="#FEFEFE" transform="translate(0,0)"/>
<path d="M0 0 C4.95 0 9.9 0 15 0 C15 4.95 15 9.9 15 15 C24.9 15 34.8 15 45 15 C45 19.95 45 24.9 45 30 C40.05 30 35.1 30 30 30 C30 39.9 30 49.8 30 60 C34.95 60 39.9 60 45 60 C45 64.95 45 69.9 45 75 C49.62 75 54.24 75 59 75 C59 79.95 59 84.9 59 90 C73.85 90 88.7 90 104 90 C104 94.95 104 99.9 104 105 C113.9 105 123.8 105 134 105 C134 114.57 134 124.14 134 134 C138.95 134 143.9 134 149 134 C149 138.95 149 143.9 149 149 C139.1 149 129.2 149 119 149 C119 153.95 119 158.9 119 164 C128.9 164 138.8 164 149 164 C149 168.95 149 173.9 149 179 C153.95 179 158.9 179 164 179 C164 183.95 164 188.9 164 194 C154.1 194 144.2 194 134 194 C134 198.95 134 203.9 134 209 C124.1 209 114.2 209 104 209 C104 213.95 104 218.9 104 224 C99.05 224 94.1 224 89 224 C89 219.05 89 214.1 89 209 C84.05 209 79.1 209 74 209 C74 213.95 74 218.9 74 224 C59.48 224 44.96 224 30 224 C30 219.05 30 214.1 30 209 C39.57 209 49.14 209 59 209 C59 204.05 59 199.1 59 194 C68.9 194 78.8 194 89 194 C89 189.05 89 184.1 89 179 C74.48 179 59.96 179 45 179 C45 174.05 45 169.1 45 164 C35.1 164 25.2 164 15 164 C15 159.05 15 154.1 15 149 C0.15 149 -14.7 149 -30 149 C-30 144.05 -30 139.1 -30 134 C-20.1 134 -10.2 134 0 134 C0 129.05 0 124.1 0 119 C4.95 119 9.9 119 15 119 C15 114.38 15 109.76 15 105 C10.05 105 5.1 105 0 105 C0 100.05 0 95.1 0 90 C-4.95 90 -9.9 90 -15 90 C-15 99.57 -15 109.14 -15 119 C-24.9 119 -34.8 119 -45 119 C-45 143.75 -45 168.5 -45 194 C-54.57 194 -64.14 194 -74 194 C-74 198.95 -74 203.9 -74 209 C-83.9 209 -93.8 209 -104 209 C-104 199.1 -104 189.2 -104 179 C-99.05 179 -94.1 179 -89 179 C-89 174.05 -89 169.1 -89 164 C-84.05 164 -79.1 164 -74 164 C-74 154.1 -74 144.2 -74 134 C-69.38 134 -64.76 134 -60 134 C-60 129.05 -60 124.1 -60 119 C-69.57 119 -79.14 119 -89 119 C-89 114.38 -89 109.76 -89 105 C-103.85 105 -118.7 105 -134 105 C-134 95.1 -134 85.2 -134 75 C-129.05 75 -124.1 75 -119 75 C-119 79.95 -119 84.9 -119 90 C-109.1 90 -99.2 90 -89 90 C-89 85.05 -89 80.1 -89 75 C-84.05 75 -79.1 75 -74 75 C-74 65.1 -74 55.2 -74 45 C-69.38 45 -64.76 45 -60 45 C-60 49.95 -60 54.9 -60 60 C-55.05 60 -50.1 60 -45 60 C-45 55.05 -45 50.1 -45 45 C-35.1 45 -25.2 45 -15 45 C-15 40.05 -15 35.1 -15 30 C-19.95 30 -24.9 30 -30 30 C-30 25.05 -30 20.1 -30 15 C-20.1 15 -10.2 15 0 15 C0 10.05 0 5.1 0 0 Z " fill="#000000" transform="translate(276,216)"/>
<path d="M0 0 C4.95 0 9.9 0 15 0 C15 4.95 15 9.9 15 15 C19.95 15 24.9 15 30 15 C30 10.05 30 5.1 30 0 C49.8 0 69.6 0 90 0 C90 4.95 90 9.9 90 15 C80.1 15 70.2 15 60 15 C60 24.9 60 34.8 60 45 C55.05 45 50.1 45 45 45 C45 49.95 45 54.9 45 60 C54.9 60 64.8 60 75 60 C75 64.95 75 69.9 75 75 C70.05 75 65.1 75 60 75 C60 79.62 60 84.24 60 89 C64.95 89 69.9 89 75 89 C75 103.85 75 118.7 75 134 C79.95 134 84.9 134 90 134 C90 138.95 90 143.9 90 149 C85.05 149 80.1 149 75 149 C75 158.9 75 168.8 75 179 C70.05 179 65.1 179 60 179 C60 174.05 60 169.1 60 164 C45.15 164 30.3 164 15 164 C15 159.05 15 154.1 15 149 C10.05 149 5.1 149 0 149 C0 144.05 0 139.1 0 134 C-4.95 134 -9.9 134 -15 134 C-15 129.05 -15 124.1 -15 119 C-5.1 119 4.8 119 15 119 C15 123.95 15 128.9 15 134 C19.95 134 24.9 134 30 134 C30 129.05 30 124.1 30 119 C39.9 119 49.8 119 60 119 C60 114.05 60 109.1 60 104 C45.15 104 30.3 104 15 104 C15 99.05 15 94.1 15 89 C10.05 89 5.1 89 0 89 C0 93.95 0 98.9 0 104 C-4.95 104 -9.9 104 -15 104 C-15 94.43 -15 84.86 -15 75 C-19.62 75 -24.24 75 -29 75 C-29 79.62 -29 84.24 -29 89 C-33.95 89 -38.9 89 -44 89 C-44 84.38 -44 79.76 -44 75 C-48.95 75 -53.9 75 -59 75 C-59 65.1 -59 55.2 -59 45 C-49.1 45 -39.2 45 -29 45 C-29 35.1 -29 25.2 -29 15 C-19.43 15 -9.86 15 0 15 C0 10.05 0 5.1 0 0 Z " fill="#000000" transform="translate(350,127)"/>
<path d="M0 0 C4.95 0 9.9 0 15 0 C15 4.95 15 9.9 15 15 C24.9 15 34.8 15 45 15 C45 19.95 45 24.9 45 30 C40.05 30 35.1 30 30 30 C30 44.85 30 59.7 30 75 C25.05 75 20.1 75 15 75 C15 79.95 15 84.9 15 90 C5.1 90 -4.8 90 -15 90 C-15 99.57 -15 109.14 -15 119 C-24.9 119 -34.8 119 -45 119 C-45 143.75 -45 168.5 -45 194 C-54.57 194 -64.14 194 -74 194 C-74 198.95 -74 203.9 -74 209 C-83.9 209 -93.8 209 -104 209 C-104 199.1 -104 189.2 -104 179 C-99.05 179 -94.1 179 -89 179 C-89 174.05 -89 169.1 -89 164 C-84.05 164 -79.1 164 -74 164 C-74 154.1 -74 144.2 -74 134 C-69.38 134 -64.76 134 -60 134 C-60 129.05 -60 124.1 -60 119 C-69.57 119 -79.14 119 -89 119 C-89 114.38 -89 109.76 -89 105 C-103.85 105 -118.7 105 -134 105 C-134 95.1 -134 85.2 -134 75 C-129.05 75 -124.1 75 -119 75 C-119 79.95 -119 84.9 -119 90 C-109.1 90 -99.2 90 -89 90 C-89 85.05 -89 80.1 -89 75 C-84.05 75 -79.1 75 -74 75 C-74 65.1 -74 55.2 -74 45 C-69.38 45 -64.76 45 -60 45 C-60 49.95 -60 54.9 -60 60 C-55.05 60 -50.1 60 -45 60 C-45 55.05 -45 50.1 -45 45 C-35.1 45 -25.2 45 -15 45 C-15 40.05 -15 35.1 -15 30 C-19.95 30 -24.9 30 -30 30 C-30 25.05 -30 20.1 -30 15 C-20.1 15 -10.2 15 0 15 C0 10.05 0 5.1 0 0 Z " fill="#FFFFFF" transform="translate(276,216)"/>
<path d="M0 0 C34.32 0 68.64 0 104 0 C104 34.32 104 68.64 104 104 C69.68 104 35.36 104 0 104 C0 69.68 0 35.36 0 0 Z " fill="#F4F4F4" transform="translate(8,8)"/>
<path d="M0 0 C33.99 0 67.98 0 103 0 C103 33.99 103 67.98 103 103 C69.01 103 35.02 103 0 103 C0 69.01 0 35.02 0 0 Z " fill="#F8F8F8" transform="translate(9,336)"/>
<path d="M0 0 C33.99 0 67.98 0 103 0 C103 33.99 103 67.98 103 103 C69.01 103 35.02 103 0 103 C0 69.01 0 35.02 0 0 Z " fill="#F8F8F8" transform="translate(336,9)"/>
<path d="M0 0 C4.62 0 9.24 0 14 0 C14 9.9 14 19.8 14 30 C18.95 30 23.9 30 29 30 C29 39.9 29 49.8 29 60 C24.05 60 19.1 60 14 60 C14 64.62 14 69.24 14 74 C9.38 74 4.76 74 0 74 C0 78.95 0 83.9 0 89 C-4.95 89 -9.9 89 -15 89 C-15 93.95 -15 98.9 -15 104 C-19.95 104 -24.9 104 -30 104 C-30 108.95 -30 113.9 -30 119 C-34.95 119 -39.9 119 -45 119 C-45 114.05 -45 109.1 -45 104 C-49.95 104 -54.9 104 -60 104 C-60 99.05 -60 94.1 -60 89 C-74.85 89 -89.7 89 -105 89 C-105 93.95 -105 98.9 -105 104 C-109.62 104 -114.24 104 -119 104 C-119 94.1 -119 84.2 -119 74 C-109.43 74 -99.86 74 -90 74 C-90 69.38 -90 64.76 -90 60 C-85.05 60 -80.1 60 -75 60 C-75 64.62 -75 69.24 -75 74 C-70.05 74 -65.1 74 -60 74 C-60 69.38 -60 64.76 -60 60 C-50.1 60 -40.2 60 -30 60 C-30 55.05 -30 50.1 -30 45 C-25.05 45 -20.1 45 -15 45 C-15 40.05 -15 35.1 -15 30 C-10.05 30 -5.1 30 0 30 C0 20.1 0 10.2 0 0 Z " fill="#000000" transform="translate(202,142)"/>
<path d="M0 0 C9.9 0 19.8 0 30 0 C30 4.95 30 9.9 30 15 C39.9 15 49.8 15 60 15 C60 10.05 60 5.1 60 0 C74.52 0 89.04 0 104 0 C104 4.95 104 9.9 104 15 C99.05 15 94.1 15 89 15 C89 19.95 89 24.9 89 30 C98.9 30 108.8 30 119 30 C119 34.95 119 39.9 119 45 C109.1 45 99.2 45 89 45 C89 49.95 89 54.9 89 60 C84.38 60 79.76 60 75 60 C75 69.57 75 79.14 75 89 C70.05 89 65.1 89 60 89 C60 93.95 60 98.9 60 104 C55.05 104 50.1 104 45 104 C45 108.95 45 113.9 45 119 C40.05 119 35.1 119 30 119 C30 109.1 30 99.2 30 89 C34.95 89 39.9 89 45 89 C45 84.38 45 79.76 45 75 C49.95 75 54.9 75 60 75 C60 70.05 60 65.1 60 60 C55.05 60 50.1 60 45 60 C45 55.05 45 50.1 45 45 C35.1 45 25.2 45 15 45 C15 40.05 15 35.1 15 30 C10.05 30 5.1 30 0 30 C0 20.1 0 10.2 0 0 Z " fill="#000000" transform="translate(8,127)"/>
<path d="M0 0 C34.32 0 68.64 0 104 0 C104 34.32 104 68.64 104 104 C69.68 104 35.36 104 0 104 C0 69.68 0 35.36 0 0 Z M15 15 C15 39.75 15 64.5 15 90 C39.75 90 64.5 90 90 90 C90 65.25 90 40.5 90 15 C65.25 15 40.5 15 15 15 Z " fill="#030303" transform="translate(8,8)"/>
<path d="M0 0 C33.99 0 67.98 0 103 0 C103 33.99 103 67.98 103 103 C69.01 103 35.02 103 0 103 C0 69.01 0 35.02 0 0 Z M14 14 C14 38.75 14 63.5 14 89 C38.75 89 63.5 89 89 89 C89 64.25 89 39.5 89 14 C64.25 14 39.5 14 14 14 Z " fill="#000000" transform="translate(9,336)"/>
<path d="M0 0 C33.99 0 67.98 0 103 0 C103 33.99 103 67.98 103 103 C69.01 103 35.02 103 0 103 C0 69.01 0 35.02 0 0 Z M14 14 C14 38.75 14 63.5 14 89 C38.75 89 63.5 89 89 89 C89 64.25 89 39.5 89 14 C64.25 14 39.5 14 14 14 Z " fill="#000000" transform="translate(336,9)"/>
<path d="M0 0 C14.85 0 29.7 0 45 0 C45 4.95 45 9.9 45 15 C59.52 15 74.04 15 89 15 C89 19.95 89 24.9 89 30 C79.1 30 69.2 30 59 30 C59 34.95 59 39.9 59 45 C44.48 45 29.96 45 15 45 C15 49.95 15 54.9 15 60 C0.15 60 -14.7 60 -30 60 C-30 55.05 -30 50.1 -30 45 C-25.05 45 -20.1 45 -15 45 C-15 40.05 -15 35.1 -15 30 C-10.05 30 -5.1 30 0 30 C0 20.1 0 10.2 0 0 Z " fill="#000000" transform="translate(276,380)"/>
<path d="M0 0 C4.95 0 9.9 0 15 0 C15 9.9 15 19.8 15 30 C19.95 30 24.9 30 30 30 C30 34.95 30 39.9 30 45 C34.95 45 39.9 45 45 45 C45 64.47 45 83.94 45 104 C49.95 104 54.9 104 60 104 C60 108.95 60 113.9 60 119 C55.05 119 50.1 119 45 119 C45 123.95 45 128.9 45 134 C40.05 134 35.1 134 30 134 C30 119.15 30 104.3 30 89 C25.05 89 20.1 89 15 89 C15 93.95 15 98.9 15 104 C10.05 104 5.1 104 0 104 C0 94.43 0 84.86 0 75 C4.95 75 9.9 75 15 75 C15 70.05 15 65.1 15 60 C10.05 60 5.1 60 0 60 C0 40.2 0 20.4 0 0 Z " fill="#000000" transform="translate(127,8)"/>
<path d="M0 0 C14.85 0 29.7 0 45 0 C45 4.95 45 9.9 45 15 C49.95 15 54.9 15 60 15 C60 19.95 60 24.9 60 30 C64.95 30 69.9 30 75 30 C75 25.05 75 20.1 75 15 C79.95 15 84.9 15 90 15 C90 19.95 90 24.9 90 30 C94.95 30 99.9 30 105 30 C105 39.9 105 49.8 105 60 C100.05 60 95.1 60 90 60 C90 64.95 90 69.9 90 75 C80.1 75 70.2 75 60 75 C60 70.05 60 65.1 60 60 C55.05 60 50.1 60 45 60 C45 50.1 45 40.2 45 30 C40.05 30 35.1 30 30 30 C30 25.05 30 20.1 30 15 C20.1 15 10.2 15 0 15 C0 10.05 0 5.1 0 0 Z " fill="#FFFFFF" transform="translate(97,231)"/>
<path d="M0 0 C9.9 0 19.8 0 30 0 C30 4.95 30 9.9 30 15 C34.95 15 39.9 15 45 15 C45 24.9 45 34.8 45 45 C40.05 45 35.1 45 30 45 C30 40.05 30 35.1 30 30 C25.05 30 20.1 30 15 30 C15 34.95 15 39.9 15 45 C10.05 45 5.1 45 0 45 C0 40.05 0 35.1 0 30 C-4.62 30 -9.24 30 -14 30 C-14 44.85 -14 59.7 -14 75 C-23.9 75 -33.8 75 -44 75 C-44 70.05 -44 65.1 -44 60 C-39.05 60 -34.1 60 -29 60 C-29 50.1 -29 40.2 -29 30 C-38.9 30 -48.8 30 -59 30 C-59 25.05 -59 20.1 -59 15 C-39.53 15 -20.06 15 0 15 C0 10.05 0 5.1 0 0 Z " fill="#000000" transform="translate(97,246)"/>
<path d="M0 0 C4.95 0 9.9 0 15 0 C15 24.75 15 49.5 15 75 C5.43 75 -4.14 75 -14 75 C-14 79.95 -14 84.9 -14 90 C-23.9 90 -33.8 90 -44 90 C-44 80.1 -44 70.2 -44 60 C-39.05 60 -34.1 60 -29 60 C-29 55.05 -29 50.1 -29 45 C-24.05 45 -19.1 45 -14 45 C-14 35.1 -14 25.2 -14 15 C-9.38 15 -4.76 15 0 15 C0 10.05 0 5.1 0 0 Z " fill="#000000" transform="translate(216,335)"/>
<path d="M0 0 C9.9 0 19.8 0 30 0 C30 9.9 30 19.8 30 30 C25.05 30 20.1 30 15 30 C15 34.95 15 39.9 15 45 C10.05 45 5.1 45 0 45 C0 54.9 0 64.8 0 75 C-4.95 75 -9.9 75 -15 75 C-15 65.1 -15 55.2 -15 45 C-19.95 45 -24.9 45 -30 45 C-30 35.1 -30 25.2 -30 15 C-20.1 15 -10.2 15 0 15 C0 10.05 0 5.1 0 0 Z " fill="#000000" transform="translate(157,335)"/>
<path d="M0 0 C9.9 0 19.8 0 30 0 C30 14.85 30 29.7 30 45 C34.62 45 39.24 45 44 45 C44 30.15 44 15.3 44 0 C48.95 0 53.9 0 59 0 C59 9.9 59 19.8 59 30 C63.95 30 68.9 30 74 30 C74 34.95 74 39.9 74 45 C69.05 45 64.1 45 59 45 C59 49.95 59 54.9 59 60 C44.48 60 29.96 60 15 60 C15 45.15 15 30.3 15 15 C10.05 15 5.1 15 0 15 C0 10.05 0 5.1 0 0 Z " fill="#000000" transform="translate(172,23)"/>
<path d="M0 0 C14.85 0 29.7 0 45 0 C45 14.85 45 29.7 45 45 C30.15 45 15.3 45 0 45 C0 30.15 0 15.3 0 0 Z " fill="#040404" transform="translate(38,365)"/>
<path d="M0 0 C4.95 0 9.9 0 15 0 C15 4.95 15 9.9 15 15 C24.9 15 34.8 15 45 15 C45 19.95 45 24.9 45 30 C40.05 30 35.1 30 30 30 C30 39.9 30 49.8 30 60 C25.05 60 20.1 60 15 60 C15 50.1 15 40.2 15 30 C10.05 30 5.1 30 0 30 C0 34.95 0 39.9 0 45 C-4.95 45 -9.9 45 -15 45 C-15 40.05 -15 35.1 -15 30 C-19.95 30 -24.9 30 -30 30 C-30 25.05 -30 20.1 -30 15 C-20.1 15 -10.2 15 0 15 C0 10.05 0 5.1 0 0 Z " fill="#000000" transform="translate(276,216)"/>
<path d="M0 0 C14.85 0 29.7 0 45 0 C45 14.85 45 29.7 45 45 C30.15 45 15.3 45 0 45 C0 30.15 0 15.3 0 0 Z " fill="#040404" transform="translate(365,38)"/>
<path d="M0 0 C14.52 0 29.04 0 44 0 C44 14.52 44 29.04 44 44 C29.48 44 14.96 44 0 44 C0 29.48 0 14.96 0 0 Z " fill="#FFFFFF" transform="translate(321,321)"/>
<path d="M0 0 C14.52 0 29.04 0 44 0 C44 14.52 44 29.04 44 44 C29.48 44 14.96 44 0 44 C0 29.48 0 14.96 0 0 Z " fill="#000000" transform="translate(38,38)"/>
<path d="M0 0 C9.9 0 19.8 0 30 0 C30 4.95 30 9.9 30 15 C44.52 15 59.04 15 74 15 C74 19.95 74 24.9 74 30 C64.1 30 54.2 30 44 30 C44 34.95 44 39.9 44 45 C34.43 45 24.86 45 15 45 C15 35.1 15 25.2 15 15 C10.05 15 5.1 15 0 15 C0 10.05 0 5.1 0 0 Z " fill="#FFFFFF" transform="translate(291,380)"/>
<path d="M0 0 C4.95 0 9.9 0 15 0 C15 4.95 15 9.9 15 15 C24.9 15 34.8 15 45 15 C45 10.05 45 5.1 45 0 C49.95 0 54.9 0 60 0 C60 9.9 60 19.8 60 30 C64.62 30 69.24 30 74 30 C74 34.62 74 39.24 74 44 C64.43 44 54.86 44 45 44 C45 39.38 45 34.76 45 30 C30.15 30 15.3 30 0 30 C0 20.1 0 10.2 0 0 Z " fill="#000000" transform="translate(142,291)"/>
<path d="M0 0 C9.9 0 19.8 0 30 0 C30 4.95 30 9.9 30 15 C34.95 15 39.9 15 45 15 C45 24.9 45 34.8 45 45 C40.05 45 35.1 45 30 45 C30 40.05 30 35.1 30 30 C25.05 30 20.1 30 15 30 C15 34.95 15 39.9 15 45 C10.05 45 5.1 45 0 45 C0 30.15 0 15.3 0 0 Z " fill="#000000" transform="translate(97,246)"/>
<path d="M0 0 C4.62 0 9.24 0 14 0 C14 4.95 14 9.9 14 15 C18.95 15 23.9 15 29 15 C29 10.05 29 5.1 29 0 C38.9 0 48.8 0 59 0 C59 4.95 59 9.9 59 15 C54.05 15 49.1 15 44 15 C44 19.95 44 24.9 44 30 C29.48 30 14.96 30 0 30 C0 20.1 0 10.2 0 0 Z " fill="#000000" transform="translate(202,261)"/>
<path d="M0 0 C4.95 0 9.9 0 15 0 C15 4.95 15 9.9 15 15 C19.95 15 24.9 15 30 15 C30 24.9 30 34.8 30 45 C25.05 45 20.1 45 15 45 C15 40.05 15 35.1 15 30 C5.1 30 -4.8 30 -15 30 C-15 25.05 -15 20.1 -15 15 C-10.05 15 -5.1 15 0 15 C0 10.05 0 5.1 0 0 Z " fill="#FFFFFF" transform="translate(350,157)"/>
<path d="M0 0 C4.95 0 9.9 0 15 0 C15 14.85 15 29.7 15 45 C5.1 45 -4.8 45 -15 45 C-15 35.1 -15 25.2 -15 15 C-10.05 15 -5.1 15 0 15 C0 10.05 0 5.1 0 0 Z " fill="#000000" transform="translate(306,8)"/>
<path d="M0 0 C4.95 0 9.9 0 15 0 C15 4.95 15 9.9 15 15 C19.95 15 24.9 15 30 15 C30 19.95 30 24.9 30 30 C15.15 30 0.3 30 -15 30 C-15 25.05 -15 20.1 -15 15 C-10.05 15 -5.1 15 0 15 C0 10.05 0 5.1 0 0 Z " fill="#000000" transform="translate(261,410)"/>
<path d="M0 0 C9.9 0 19.8 0 30 0 C30 4.95 30 9.9 30 15 C25.05 15 20.1 15 15 15 C15 19.95 15 24.9 15 30 C5.1 30 -4.8 30 -15 30 C-15 25.05 -15 20.1 -15 15 C-10.05 15 -5.1 15 0 15 C0 10.05 0 5.1 0 0 Z " fill="#000000" transform="translate(142,157)"/>
<path d="M0 0 C9.9 0 19.8 0 30 0 C30 9.9 30 19.8 30 30 C20.1 30 10.2 30 0 30 C0 20.1 0 10.2 0 0 Z " fill="#000000" transform="translate(8,127)"/>
<path d="M0 0 C9.9 0 19.8 0 30 0 C30 4.95 30 9.9 30 15 C34.95 15 39.9 15 45 15 C45 19.95 45 24.9 45 30 C35.1 30 25.2 30 15 30 C15 25.05 15 20.1 15 15 C10.05 15 5.1 15 0 15 C0 10.05 0 5.1 0 0 Z " fill="#000000" transform="translate(231,8)"/>
<path d="M0 0 C4.95 0 9.9 0 15 0 C15 9.9 15 19.8 15 30 C5.1 30 -4.8 30 -15 30 C-15 25.05 -15 20.1 -15 15 C-10.05 15 -5.1 15 0 15 C0 10.05 0 5.1 0 0 Z " fill="#000000" transform="translate(246,142)"/>
<path d="M0 0 C4.95 0 9.9 0 15 0 C15 14.85 15 29.7 15 45 C10.05 45 5.1 45 0 45 C0 30.15 0 15.3 0 0 Z " fill="#000000" transform="translate(291,112)"/>
<path d="M0 0 C4.95 0 9.9 0 15 0 C15 4.95 15 9.9 15 15 C19.95 15 24.9 15 30 15 C30 19.95 30 24.9 30 30 C20.1 30 10.2 30 0 30 C0 20.1 0 10.2 0 0 Z " fill="#000000" transform="translate(216,97)"/>
<path d="M0 0 C9.9 0 19.8 0 30 0 C30 4.95 30 9.9 30 15 C25.05 15 20.1 15 15 15 C15 19.62 15 24.24 15 29 C10.05 29 5.1 29 0 29 C0 19.43 0 9.86 0 0 Z " fill="#000000" transform="translate(246,187)"/>
<path d="M0 0 C4.95 0 9.9 0 15 0 C15 9.57 15 19.14 15 29 C5.1 29 -4.8 29 -15 29 C-15 24.38 -15 19.76 -15 15 C-10.05 15 -5.1 15 0 15 C0 10.05 0 5.1 0 0 Z " fill="#000000" transform="translate(246,306)"/>
<path d="M0 0 C9.9 0 19.8 0 30 0 C30 4.62 30 9.24 30 14 C25.05 14 20.1 14 15 14 C15 18.95 15 23.9 15 29 C10.05 29 5.1 29 0 29 C0 19.43 0 9.86 0 0 Z " fill="#000000" transform="translate(246,83)"/>
<path d="M0 0 C4.62 0 9.24 0 14 0 C14 14.85 14 29.7 14 45 C9.38 45 4.76 45 0 45 C0 30.15 0 15.3 0 0 Z " fill="#FFFFFF" transform="translate(202,23)"/>
<path d="M0 0 C4.62 0 9.24 0 14 0 C14 4.95 14 9.9 14 15 C18.95 15 23.9 15 29 15 C29 19.62 29 24.24 29 29 C19.43 29 9.86 29 0 29 C0 19.43 0 9.86 0 0 Z " fill="#FFFFFF" transform="translate(83,187)"/>
<path d="M0 0 C4.95 0 9.9 0 15 0 C15 9.9 15 19.8 15 30 C10.05 30 5.1 30 0 30 C0 20.1 0 10.2 0 0 Z " fill="#000000" transform="translate(127,410)"/>
<path d="M0 0 C9.9 0 19.8 0 30 0 C30 4.95 30 9.9 30 15 C20.1 15 10.2 15 0 15 C0 10.05 0 5.1 0 0 Z " fill="#FFFFFF" transform="translate(395,365)"/>
<path d="M0 0 C9.9 0 19.8 0 30 0 C30 4.95 30 9.9 30 15 C20.1 15 10.2 15 0 15 C0 10.05 0 5.1 0 0 Z " fill="#000000" transform="translate(97,306)"/>
<path d="M0 0 C9.9 0 19.8 0 30 0 C30 4.95 30 9.9 30 15 C20.1 15 10.2 15 0 15 C0 10.05 0 5.1 0 0 Z " fill="#000000" transform="translate(8,306)"/>
<path d="M0 0 C4.95 0 9.9 0 15 0 C15 9.9 15 19.8 15 30 C10.05 30 5.1 30 0 30 C0 20.1 0 10.2 0 0 Z " fill="#000000" transform="translate(216,216)"/>
<path d="M0 0 C9.9 0 19.8 0 30 0 C30 4.95 30 9.9 30 15 C20.1 15 10.2 15 0 15 C0 10.05 0 5.1 0 0 Z " fill="#000000" transform="translate(97,157)"/>
<path d="M0 0 C9.57 0 19.14 0 29 0 C29 4.95 29 9.9 29 15 C19.43 15 9.86 15 0 15 C0 10.05 0 5.1 0 0 Z " fill="#FFFFFF" transform="translate(68,157)"/>
<path d="M0 0 C4.95 0 9.9 0 15 0 C15 9.57 15 19.14 15 29 C10.05 29 5.1 29 0 29 C0 19.43 0 9.86 0 0 Z " fill="#000000" transform="translate(306,83)"/>
<path d="M0 0 C4.95 0 9.9 0 15 0 C15 4.95 15 9.9 15 15 C10.05 15 5.1 15 0 15 C0 10.05 0 5.1 0 0 Z " fill="#000000" transform="translate(410,425)"/>
<path d="M0 0 C4.95 0 9.9 0 15 0 C15 4.95 15 9.9 15 15 C10.05 15 5.1 15 0 15 C0 10.05 0 5.1 0 0 Z " fill="#000000" transform="translate(216,425)"/>
<path d="M0 0 C4.95 0 9.9 0 15 0 C15 4.95 15 9.9 15 15 C10.05 15 5.1 15 0 15 C0 10.05 0 5.1 0 0 Z " fill="#FFFFFF" transform="translate(276,410)"/>
<path d="M0 0 C4.95 0 9.9 0 15 0 C15 4.95 15 9.9 15 15 C10.05 15 5.1 15 0 15 C0 10.05 0 5.1 0 0 Z " fill="#FFFFFF" transform="translate(380,395)"/>
<path d="M0 0 C4.95 0 9.9 0 15 0 C15 4.95 15 9.9 15 15 C10.05 15 5.1 15 0 15 C0 10.05 0 5.1 0 0 Z " fill="#000000" transform="translate(246,395)"/>
<path d="M0 0 C4.95 0 9.9 0 15 0 C15 4.95 15 9.9 15 15 C10.05 15 5.1 15 0 15 C0 10.05 0 5.1 0 0 Z " fill="#FFFFFF" transform="translate(365,380)"/>
<path d="M0 0 C4.95 0 9.9 0 15 0 C15 4.95 15 9.9 15 15 C10.05 15 5.1 15 0 15 C0 10.05 0 5.1 0 0 Z " fill="#000000" transform="translate(425,365)"/>
<path d="M0 0 C4.95 0 9.9 0 15 0 C15 4.95 15 9.9 15 15 C10.05 15 5.1 15 0 15 C0 10.05 0 5.1 0 0 Z " fill="#FFFFFF" transform="translate(380,350)"/>
<path d="M0 0 C4.95 0 9.9 0 15 0 C15 4.95 15 9.9 15 15 C10.05 15 5.1 15 0 15 C0 10.05 0 5.1 0 0 Z " fill="#000000" transform="translate(425,335)"/>
<path d="M0 0 C4.95 0 9.9 0 15 0 C15 4.95 15 9.9 15 15 C10.05 15 5.1 15 0 15 C0 10.05 0 5.1 0 0 Z " fill="#000000" transform="translate(335,335)"/>
<path d="M0 0 C4.95 0 9.9 0 15 0 C15 4.95 15 9.9 15 15 C10.05 15 5.1 15 0 15 C0 10.05 0 5.1 0 0 Z " fill="#FFFFFF" transform="translate(291,335)"/>
<path d="M0 0 C4.95 0 9.9 0 15 0 C15 4.95 15 9.9 15 15 C10.05 15 5.1 15 0 15 C0 10.05 0 5.1 0 0 Z " fill="#FFFFFF" transform="translate(276,291)"/>
<path d="M0 0 C4.95 0 9.9 0 15 0 C15 4.95 15 9.9 15 15 C10.05 15 5.1 15 0 15 C0 10.05 0 5.1 0 0 Z " fill="#000000" transform="translate(261,291)"/>
<path d="M0 0 C4.95 0 9.9 0 15 0 C15 4.95 15 9.9 15 15 C10.05 15 5.1 15 0 15 C0 10.05 0 5.1 0 0 Z " fill="#000000" transform="translate(38,291)"/>
<path d="M0 0 C4.95 0 9.9 0 15 0 C15 4.95 15 9.9 15 15 C10.05 15 5.1 15 0 15 C0 10.05 0 5.1 0 0 Z " fill="#000000" transform="translate(335,276)"/>
<path d="M0 0 C4.95 0 9.9 0 15 0 C15 4.95 15 9.9 15 15 C10.05 15 5.1 15 0 15 C0 10.05 0 5.1 0 0 Z " fill="#FFFFFF" transform="translate(291,276)"/>
<path d="M0 0 C4.95 0 9.9 0 15 0 C15 4.95 15 9.9 15 15 C10.05 15 5.1 15 0 15 C0 10.05 0 5.1 0 0 Z " fill="#000000" transform="translate(276,276)"/>
<path d="M0 0 C4.95 0 9.9 0 15 0 C15 4.95 15 9.9 15 15 C10.05 15 5.1 15 0 15 C0 10.05 0 5.1 0 0 Z " fill="#000000" transform="translate(97,276)"/>
<path d="M0 0 C4.95 0 9.9 0 15 0 C15 4.95 15 9.9 15 15 C10.05 15 5.1 15 0 15 C0 10.05 0 5.1 0 0 Z " fill="#FFFFFF" transform="translate(380,261)"/>
<path d="M0 0 C4.95 0 9.9 0 15 0 C15 4.95 15 9.9 15 15 C10.05 15 5.1 15 0 15 C0 10.05 0 5.1 0 0 Z " fill="#FFFFFF" transform="translate(335,261)"/>
<path d="M0 0 C4.95 0 9.9 0 15 0 C15 4.95 15 9.9 15 15 C10.05 15 5.1 15 0 15 C0 10.05 0 5.1 0 0 Z " fill="#FFFFFF" transform="translate(97,261)"/>
<path d="M0 0 C4.95 0 9.9 0 15 0 C15 4.95 15 9.9 15 15 C10.05 15 5.1 15 0 15 C0 10.05 0 5.1 0 0 Z " fill="#000000" transform="translate(8,261)"/>
<path d="M0 0 C4.95 0 9.9 0 15 0 C15 4.95 15 9.9 15 15 C10.05 15 5.1 15 0 15 C0 10.05 0 5.1 0 0 Z " fill="#000000" transform="translate(187,246)"/>
<path d="M0 0 C4.95 0 9.9 0 15 0 C15 4.95 15 9.9 15 15 C10.05 15 5.1 15 0 15 C0 10.05 0 5.1 0 0 Z " fill="#FFFFFF" transform="translate(187,187)"/>
<path d="M0 0 C4.95 0 9.9 0 15 0 C15 4.95 15 9.9 15 15 C10.05 15 5.1 15 0 15 C0 10.05 0 5.1 0 0 Z " fill="#000000" transform="translate(172,187)"/>
<path d="M0 0 C4.95 0 9.9 0 15 0 C15 4.95 15 9.9 15 15 C10.05 15 5.1 15 0 15 C0 10.05 0 5.1 0 0 Z " fill="#000000" transform="translate(97,187)"/>
<path d="M0 0 C4.95 0 9.9 0 15 0 C15 4.95 15 9.9 15 15 C10.05 15 5.1 15 0 15 C0 10.05 0 5.1 0 0 Z " fill="#FFFFFF" transform="translate(53,187)"/>
<path d="M0 0 C4.95 0 9.9 0 15 0 C15 4.95 15 9.9 15 15 C10.05 15 5.1 15 0 15 C0 10.05 0 5.1 0 0 Z " fill="#000000" transform="translate(38,187)"/>
<path d="M0 0 C4.95 0 9.9 0 15 0 C15 4.95 15 9.9 15 15 C10.05 15 5.1 15 0 15 C0 10.05 0 5.1 0 0 Z " fill="#000000" transform="translate(8,172)"/>
<path d="M0 0 C4.95 0 9.9 0 15 0 C15 4.95 15 9.9 15 15 C10.05 15 5.1 15 0 15 C0 10.05 0 5.1 0 0 Z " fill="#000000" transform="translate(425,157)"/>
<path d="M0 0 C4.95 0 9.9 0 15 0 C15 4.95 15 9.9 15 15 C10.05 15 5.1 15 0 15 C0 10.05 0 5.1 0 0 Z " fill="#FFFFFF" transform="translate(127,157)"/>
<path d="M0 0 C4.95 0 9.9 0 15 0 C15 4.95 15 9.9 15 15 C10.05 15 5.1 15 0 15 C0 10.05 0 5.1 0 0 Z " fill="#FFFFFF" transform="translate(380,142)"/>
<path d="M0 0 C4.95 0 9.9 0 15 0 C15 4.95 15 9.9 15 15 C10.05 15 5.1 15 0 15 C0 10.05 0 5.1 0 0 Z " fill="#000000" transform="translate(127,142)"/>
<path d="M0 0 C4.95 0 9.9 0 15 0 C15 4.95 15 9.9 15 15 C10.05 15 5.1 15 0 15 C0 10.05 0 5.1 0 0 Z " fill="#FFFFFF" transform="translate(23,142)"/>
<path d="M0 0 C4.95 0 9.9 0 15 0 C15 4.95 15 9.9 15 15 C10.05 15 5.1 15 0 15 C0 10.05 0 5.1 0 0 Z " fill="#000000" transform="translate(187,127)"/>
<path d="M0 0 C4.95 0 9.9 0 15 0 C15 4.95 15 9.9 15 15 C10.05 15 5.1 15 0 15 C0 10.05 0 5.1 0 0 Z " fill="#000000" transform="translate(276,97)"/>
<path d="M0 0 C4.95 0 9.9 0 15 0 C15 4.95 15 9.9 15 15 C10.05 15 5.1 15 0 15 C0 10.05 0 5.1 0 0 Z " fill="#000000" transform="translate(187,97)"/>
<path d="M0 0 C4.95 0 9.9 0 15 0 C15 4.95 15 9.9 15 15 C10.05 15 5.1 15 0 15 C0 10.05 0 5.1 0 0 Z " fill="#000000" transform="translate(276,53)"/>
<path d="M0 0 C4.95 0 9.9 0 15 0 C15 4.62 15 9.24 15 14 C10.05 14 5.1 14 0 14 C0 9.38 0 4.76 0 0 Z " fill="#000000" transform="translate(127,321)"/>
<path d="M0 0 C4.62 0 9.24 0 14 0 C14 4.95 14 9.9 14 15 C9.38 15 4.76 15 0 15 C0 10.05 0 5.1 0 0 Z " fill="#000000" transform="translate(321,261)"/>
<path d="M0 0 C4.95 0 9.9 0 15 0 C15 4.62 15 9.24 15 14 C10.05 14 5.1 14 0 14 C0 9.38 0 4.76 0 0 Z " fill="#FFFFFF" transform="translate(380,202)"/>
<path d="M0 0 C4.95 0 9.9 0 15 0 C15 4.62 15 9.24 15 14 C10.05 14 5.1 14 0 14 C0 9.38 0 4.76 0 0 Z " fill="#FFFFFF" transform="translate(172,202)"/>
<path d="M0 0 C4.95 0 9.9 0 15 0 C15 4.62 15 9.24 15 14 C10.05 14 5.1 14 0 14 C0 9.38 0 4.76 0 0 Z " fill="#000000" transform="translate(23,202)"/>
<path d="M0 0 C4.62 0 9.24 0 14 0 C14 4.95 14 9.9 14 15 C9.38 15 4.76 15 0 15 C0 10.05 0 5.1 0 0 Z " fill="#000000" transform="translate(202,8)"/>
</svg>
